<?xml version="1.0" standalone="no"?>
<!DOCTYPE svg PUBLIC "-//W3C//DTD SVG 20010904//EN"
 "http://www.w3.org/TR/2001/REC-SVG-20010904/DTD/svg10.dtd">
<svg version="1.0" xmlns="http://www.w3.org/2000/svg"
 width="688.000000pt" height="700.000000pt" viewBox="0 0 688.000000 700.000000"
 preserveAspectRatio="xMidYMid meet">

<g transform="translate(0.000000,700.000000) scale(0.100000,-0.100000)"
fill="#000000" stroke="none">
<path d="M2775 6591 c-87 -23 -151 -50 -223 -98 -70 -46 -177 -153 -223 -223
l-35 -52 -114 -3 c-226 -6 -397 -92 -541 -272 -80 -100 -120 -207 -134 -358
l-7 -70 -71 -39 c-45 -25 -100 -68 -148 -115 -119 -119 -169 -243 -169 -417 0
-84 -2 -93 -20 -99 -22 -7 -91 -62 -158 -128 -196 -191 -254 -535 -135 -795
l16 -33 -45 -43 c-53 -53 -115 -134 -151 -196 -59 -103 -94 -330 -68 -448 10
-47 8 -68 -19 -190 -29 -135 -88 -393 -170 -732 -23 -96 -48 -202 -55 -235 -8
-33 -33 -139 -56 -235 -50 -214 -58 -293 -34 -341 25 -49 63 -87 102 -100 19
-6 32 -16 30 -23 -2 -6 -17 -69 -33 -141 -16 -75 -34 -134 -42 -139 -40 -24
-90 -79 -111 -121 -28 -56 -38 -153 -22 -212 18 -64 80 -136 148 -169 l57 -28
1268 -1 1268 0 38 -42 c75 -84 190 -153 312 -189 53 -15 98 -19 245 -19 159 0
189 3 262 24 83 23 168 67 228 118 18 16 41 35 52 44 11 9 27 27 37 40 l16 24
1258 1 c691 0 1271 4 1287 9 81 22 145 75 186 155 17 33 23 61 23 110 0 88
-29 150 -103 220 l-57 55 -28 133 c-15 74 -26 135 -24 136 97 60 136 107 145
173 3 24 -7 85 -26 168 -35 143 -55 227 -135 575 -195 850 -189 813 -191 1015
-2 142 -5 182 -24 245 -29 100 -88 196 -174 287 l-70 74 26 63 c92 225 66 479
-69 672 -50 71 -146 162 -209 200 l-45 26 0 88 c0 115 -14 178 -58 270 -48 98
-156 208 -262 266 l-75 41 -3 68 c-6 167 -70 312 -192 435 -130 129 -281 190
-476 193 l-112 2 -35 55 c-104 158 -289 288 -463 325 -231 49 -467 -14 -620
-165 l-72 -70 -15 24 c-57 86 -193 173 -323 206 -100 26 -260 26 -359 1z m321
-217 c106 -30 213 -132 254 -242 19 -49 20 -78 20 -407 l0 -355 -174 0 c-98 0
-187 5 -202 11 -16 5 -49 30 -75 54 -55 51 -87 62 -130 45 -125 -52 -71 -215
98 -293 44 -20 68 -22 263 -27 l215 -5 3 -232 c1 -128 0 -233 -2 -233 -3 0
-25 14 -50 30 -68 46 -143 77 -228 94 -95 20 -150 20 -254 2 -147 -26 -189
-56 -189 -136 0 -34 6 -54 20 -70 35 -39 59 -42 147 -19 206 52 357 7 498
-150 l60 -66 0 -322 c0 -182 -4 -323 -9 -323 -5 0 -53 11 -107 25 -110 29
-138 25 -167 -24 -25 -42 -22 -94 8 -129 24 -28 103 -60 233 -92 l42 -11 0
-220 0 -220 -42 29 c-121 83 -240 117 -383 109 -55 -2 -116 -11 -136 -20 -70
-29 -97 -94 -64 -156 22 -44 62 -55 153 -45 42 5 103 6 135 2 119 -15 247
-111 307 -231 l30 -60 0 -242 0 -242 -42 -16 c-174 -65 -311 -41 -425 73 -69
69 -102 139 -112 239 -9 87 -19 107 -66 127 -43 17 -80 7 -115 -33 -31 -35
-35 -56 -30 -155 l2 -48 -40 0 c-59 0 -151 32 -215 74 -158 105 -245 307 -217
506 27 197 161 347 337 380 34 6 90 8 125 4 82 -8 131 11 155 60 14 30 15 41
4 76 -18 60 -65 79 -193 80 -123 0 -182 -12 -287 -61 -67 -31 -98 -54 -160
-116 -142 -143 -201 -290 -201 -501 0 -117 19 -214 59 -298 l30 -63 -46 -41
c-58 -51 -171 -107 -242 -120 -132 -25 -300 -4 -416 50 -183 87 -335 308 -270
394 18 24 20 87 3 108 -7 8 -39 34 -71 57 -133 97 -193 247 -168 420 21 140
81 234 215 335 40 30 76 63 80 71 14 38 4 82 -33 144 -56 93 -75 166 -74 281
1 152 46 254 155 355 74 69 155 109 258 129 83 15 120 45 120 96 0 71 -39 110
-114 113 l-46 2 0 38 c0 117 74 237 190 305 69 41 73 42 91 26 11 -10 34 -47
51 -82 28 -57 33 -79 38 -170 6 -102 7 -105 38 -133 70 -63 163 -22 176 78 6
52 -7 184 -25 248 -18 63 -65 149 -114 209 -43 53 -45 58 -45 121 0 198 145
371 352 420 35 8 81 15 103 15 39 0 40 -1 42 -34 5 -99 115 -139 177 -65 14
17 30 49 36 72 30 118 70 188 160 276 134 132 314 177 496 125z m1007 11 c93
-20 180 -68 258 -145 78 -78 120 -149 148 -250 33 -118 92 -157 169 -110 34
21 52 54 52 96 0 20 5 24 33 24 59 0 164 -28 223 -59 147 -76 234 -217 234
-377 0 -76 0 -77 -41 -121 -53 -58 -116 -191 -129 -273 -15 -96 -13 -206 5
-240 32 -62 108 -69 161 -16 33 33 34 37 34 109 0 117 61 277 106 277 24 0
106 -46 141 -80 74 -70 123 -173 123 -257 0 -43 0 -43 -35 -43 -79 0 -127 -57
-109 -127 12 -48 44 -69 130 -87 99 -20 164 -56 245 -135 165 -162 191 -386
73 -608 -44 -83 -53 -127 -34 -164 6 -10 40 -41 77 -69 116 -88 174 -171 205
-293 15 -61 19 -99 15 -152 -10 -132 -59 -216 -184 -318 -67 -54 -73 -61 -73
-96 0 -23 8 -48 20 -64 25 -31 21 -53 -26 -154 -64 -135 -233 -256 -397 -283
-194 -33 -386 18 -509 135 l-37 35 30 65 c41 92 59 175 59 285 0 198 -68 369
-199 500 -127 126 -262 180 -455 180 -113 0 -161 -16 -183 -60 -27 -55 -4
-129 46 -150 14 -5 73 -9 132 -9 117 2 159 -8 234 -56 210 -133 272 -432 139
-670 -69 -122 -217 -222 -347 -232 l-62 -5 3 83 c3 103 -15 141 -76 160 -33 9
-45 9 -75 -6 -42 -20 -53 -46 -62 -140 -12 -129 -95 -248 -212 -303 -51 -24
-69 -27 -153 -26 -72 1 -109 6 -152 23 l-58 22 0 252 c0 244 1 254 24 302 50
106 154 190 275 221 56 14 76 14 163 3 94 -12 100 -11 126 8 89 66 52 180 -66
200 -26 4 -92 8 -147 8 -119 0 -214 -27 -307 -87 -32 -21 -61 -38 -64 -38 -2
0 -3 98 -2 217 l3 217 70 17 c109 27 183 58 205 86 29 37 26 94 -5 131 -36 43
-62 46 -161 17 -47 -14 -92 -25 -100 -25 -12 0 -14 54 -14 323 l0 323 48 59
c57 72 153 139 230 161 70 21 191 21 257 0 74 -23 118 -21 154 10 69 58 43
147 -53 183 -72 27 -206 45 -285 38 -88 -7 -213 -48 -281 -91 -30 -20 -58 -36
-62 -36 -5 0 -8 103 -8 229 l0 230 213 3 212 3 62 32 c111 59 176 148 152 211
-36 94 -118 103 -194 22 -50 -54 -76 -60 -270 -60 l-176 0 3 368 3 367 27 57
c55 117 172 206 298 227 80 13 107 12 183 -4z m-3350 -3595 c11 -75 58 -210
98 -277 197 -329 680 -467 1046 -298 72 33 148 85 184 126 16 18 18 17 60 -14
152 -114 312 -167 465 -152 l71 6 42 -50 c47 -56 147 -125 231 -161 82 -34
250 -40 348 -12 l72 20 0 -310 0 -310 -86 80 c-169 157 -367 239 -649 272
-111 12 -226 6 -1135 -64 -250 -19 -558 -42 -685 -51 -126 -8 -265 -18 -307
-22 -70 -5 -78 -4 -78 12 0 17 31 157 90 405 16 69 55 233 85 365 95 413 117
496 129 492 6 -2 14 -28 19 -57z m5481 43 c2 -10 26 -108 51 -218 26 -110 76
-324 112 -475 87 -371 126 -560 119 -567 -3 -3 -97 1 -208 11 -112 9 -270 21
-353 26 -172 12 -853 63 -1150 86 -252 20 -449 22 -545 5 -256 -45 -442 -129
-591 -270 l-79 -73 0 306 c0 187 4 306 10 306 5 0 35 -7 67 -15 90 -24 217
-20 310 10 97 30 160 69 241 148 l62 62 98 0 c155 2 278 42 411 135 58 41 61
42 83 26 13 -9 48 -34 78 -56 132 -95 325 -148 496 -136 311 21 572 188 690
441 33 72 44 107 64 208 11 57 24 72 34 40z m-3554 -1344 c80 -12 245 -69 303
-102 117 -69 209 -162 251 -255 l19 -41 -36 -41 c-51 -55 -67 -100 -67 -184 0
-178 116 -276 325 -276 202 0 323 98 333 271 5 78 -16 134 -71 195 l-35 39 24
53 c31 70 138 177 226 226 92 51 212 93 321 112 97 17 267 15 530 -6 67 -5
208 -17 312 -25 245 -21 679 -53 870 -65 163 -11 409 -31 412 -34 1 -1 5 -21
9 -45 l7 -43 -282 3 c-270 4 -283 3 -297 -15 -16 -23 -17 -35 -4 -56 8 -13 57
-16 306 -20 l296 -5 13 -40 c8 -21 12 -42 9 -45 -7 -6 -277 -5 -1485 5 -886 7
-897 7 -942 -13 -31 -14 -55 -34 -74 -63 -27 -41 -28 -47 -28 -168 -1 -138 -6
-155 -67 -223 -78 -88 -214 -138 -370 -138 -157 1 -288 43 -374 122 -72 66
-85 104 -82 240 2 104 1 116 -22 157 -14 25 -41 54 -60 65 -34 20 -50 21 -475
22 -242 0 -768 -3 -1170 -8 -401 -4 -749 -6 -771 -3 l-42 6 13 42 12 42 302 5
c318 5 320 6 321 51 0 42 -19 44 -318 40 l-285 -3 7 38 c4 22 11 42 14 46 6 5
207 22 777 63 106 8 700 55 870 70 190 16 391 18 475 4z m856 -509 c38 -24 59
-75 49 -121 -17 -77 -159 -94 -207 -25 -4 6 -8 31 -8 55 0 36 6 49 34 77 40
40 82 45 132 14z m-726 -139 c0 -16 -3 -41 -6 -57 l-5 -29 -1202 2 -1202 3
-17 21 c-23 28 -23 44 2 69 20 20 33 20 1225 20 l1205 0 0 -29z m3770 9 c25
-25 25 -42 3 -69 l-18 -21 -1207 -2 -1206 -3 -4 58 -3 57 1208 0 c1194 0 1207
0 1227 -20z"/>
<path d="M2933 5960 c-38 -9 -61 -33 -102 -114 -41 -78 -41 -127 -2 -167 33
-33 75 -38 119 -15 33 17 112 161 112 204 0 60 -63 105 -127 92z"/>
<path d="M2184 5661 c-41 -25 -54 -66 -54 -171 0 -144 39 -238 138 -333 91
-86 163 -98 223 -37 21 21 29 38 29 65 0 38 -1 39 -105 135 -57 52 -79 110
-78 200 1 89 -14 126 -62 146 -44 18 -54 18 -91 -5z"/>
<path d="M2271 4974 c-181 -49 -337 -221 -349 -385 -4 -51 -2 -59 26 -90 26
-29 36 -33 72 -32 56 3 94 39 115 109 34 117 126 187 266 203 89 10 113 21
135 63 22 42 11 90 -27 122 -27 23 -39 26 -107 25 -42 0 -101 -7 -131 -15z"/>
<path d="M1574 4431 c-34 -15 -64 -61 -64 -97 0 -47 25 -107 78 -187 57 -85
119 -141 199 -179 l63 -30 -53 -60 c-66 -74 -111 -146 -138 -224 -24 -68 -44
-255 -34 -322 17 -111 126 -139 195 -49 9 12 16 61 20 141 6 108 10 130 37
187 85 180 246 292 460 319 116 15 154 34 170 83 11 33 11 44 -3 73 -34 71
-105 78 -324 32 -63 -13 -111 -18 -143 -13 -135 17 -239 93 -301 218 -20 41
-45 82 -55 91 -22 20 -78 29 -107 17z"/>
<path d="M2905 4296 c-44 -19 -93 -79 -133 -165 -30 -61 -37 -88 -40 -156 -5
-95 10 -135 57 -155 75 -31 151 23 151 108 0 71 16 114 65 178 34 44 45 66 45
94 0 42 -20 74 -60 95 -35 18 -46 18 -85 1z"/>
<path d="M1197 3969 c-72 -56 -55 -231 34 -371 69 -107 169 -141 237 -79 26
24 32 38 32 70 0 35 -8 49 -59 106 -62 68 -81 116 -81 201 0 78 -100 123 -163
73z"/>
<path d="M1263 3148 c-46 -12 -73 -51 -73 -105 0 -100 123 -273 233 -327 105
-53 201 -22 214 69 7 54 -19 85 -102 125 -70 34 -101 67 -131 143 -33 84 -75
112 -141 95z"/>
<path d="M3953 5950 c-64 -39 -68 -77 -17 -184 42 -89 71 -116 125 -116 29 0
45 7 69 32 28 28 32 37 27 73 -6 61 -65 174 -102 196 -38 24 -62 24 -102 -1z"/>
<path d="M4674 5666 c-39 -17 -51 -50 -57 -152 -6 -106 -37 -167 -111 -226
-79 -62 -93 -129 -39 -180 19 -17 36 -23 72 -23 64 0 131 42 192 122 63 82 90
157 96 265 7 112 -11 168 -61 192 -41 19 -52 19 -92 2z"/>
<path d="M4439 4961 c-23 -23 -29 -38 -29 -71 0 -79 32 -104 148 -113 121 -10
220 -82 253 -185 31 -98 56 -122 124 -122 24 0 45 9 67 29 30 27 33 34 32 86
-2 81 -57 185 -138 263 -100 96 -215 142 -356 142 -66 0 -74 -2 -101 -29z"/>
<path d="M5287 4419 c-15 -11 -42 -51 -62 -88 -63 -119 -144 -186 -263 -216
-58 -15 -69 -15 -174 4 -163 28 -258 35 -288 19 -14 -7 -33 -30 -43 -51 -16
-31 -17 -42 -7 -72 18 -55 48 -71 141 -80 218 -18 392 -131 476 -305 34 -69
37 -83 43 -200 4 -70 13 -136 19 -148 40 -75 148 -67 186 14 15 32 17 56 12
153 -9 185 -53 299 -167 431 l-48 56 61 34 c141 80 267 250 267 359 0 55 -18
83 -66 101 -38 15 -59 12 -87 -11z"/>
<path d="M3970 4299 c-68 -27 -80 -109 -27 -180 50 -65 64 -98 72 -164 9 -81
20 -108 54 -128 38 -22 69 -21 108 3 48 29 56 52 51 145 -3 68 -10 95 -40 156
-41 87 -89 146 -135 165 -37 16 -49 16 -83 3z"/>
<path d="M5632 3974 c-34 -23 -52 -67 -52 -125 0 -68 -30 -131 -76 -160 -43
-26 -54 -47 -54 -102 0 -84 76 -125 156 -86 154 74 251 364 154 461 -33 32
-91 38 -128 12z"/>
<path d="M5589 3123 c-14 -16 -40 -58 -57 -94 -33 -68 -69 -104 -129 -128 -57
-23 -83 -58 -83 -110 0 -39 5 -52 29 -75 85 -82 285 31 379 213 36 71 41 125
17 171 -19 37 -43 50 -92 50 -30 0 -45 -7 -64 -27z"/>
<path d="M897 2020 c-47 -37 -44 -135 4 -160 10 -6 86 -10 169 -10 150 0 151
0 175 26 36 39 34 96 -4 135 l-29 29 -145 0 c-130 0 -147 -2 -170 -20z"/>
<path d="M5714 2017 c-37 -32 -39 -105 -4 -142 23 -25 26 -25 177 -25 150 0
155 1 178 25 18 17 25 35 25 64 0 90 -23 101 -209 101 -132 0 -141 -1 -167
-23z"/>
</g>
</svg>
